<?xml version="1.0" encoding="utf-8"?>

<!-- Uploaded to: SVG Repo, www.svgrepo.com, Generator: SVG Repo Mixer Tools -->
<svg version="1.1" id="Icons" xmlns="http://www.w3.org/2000/svg" xmlns:xlink="http://www.w3.org/1999/xlink" 
	 viewBox="0 0 32 32" xml:space="preserve">
<style type="text/css">
	.st0{fill:none;stroke:#000000;stroke-width:2;stroke-linecap:round;stroke-linejoin:round;stroke-miterlimit:10;}
</style>
<g>
	<path d="M27,32h-9.1c-1.5,0-2.8-0.6-3.9-1.6L0.3,16.7c-0.4-0.4-0.4-1,0-1.4s1-0.4,1.4,0L15.4,29c0.7,0.6,1.5,1,2.5,1H27
		c0.6,0,1,0.4,1,1S27.6,32,27,32z"/>
</g>
<path d="M27.1,23H17c-0.6,0-1-0.4-1-1s0.4-1,1-1h5.8c-0.4-0.3-0.7-0.6-1-1H15c-0.6,0-1-0.4-1-1s0.4-1,1-1h5.6
	c-0.4-1.1-0.6-2.4-0.6-4c0-0.3-0.1-0.5-0.3-0.7C19.5,13.1,19.3,13,19,13h-1c-3.3,0-7-3.7-7-7c0-0.4-0.3-0.8-0.6-0.9
	C10,4.9,9.5,5,9.2,5.3l-7,8c-0.3,0.4-0.3,1,0,1.4L15,27.4c1,1,2.4,1.6,3.9,1.6H27c0.5,0,0.9-0.3,1-0.8l0.4-1.8
	c0.2-0.9,0.1-1.8-0.4-2.5C27.8,23.6,27.5,23.3,27.1,23z M10.5,18C9.1,18,8,16.9,8,15.5S9.1,13,10.5,13s2.5,1.1,2.5,2.5
	S11.9,18,10.5,18z"/>
<g>
	<path d="M19,15.7c-0.4,0-0.8-0.3-1-0.7c-0.7-2.6,0-5.5,2-7.4l7.3-7.3c0.4-0.4,1-0.4,1.4,0s0.4,1,0,1.4L21.4,9
		c-1.4,1.4-2,3.5-1.5,5.5c0.1,0.5-0.2,1.1-0.7,1.2C19.2,15.7,19.1,15.7,19,15.7z"/>
</g>
<g>
	<path d="M10,8C9.6,8,9.2,7.7,9.1,7.3C8.9,6.8,9.2,6.2,9.7,6.1c1.7-0.6,3.2-1.7,4.1-3.3l1.4-2.3C15.4,0,16-0.1,16.5,0.1
		C17,0.4,17.1,1,16.9,1.5l-1.4,2.3c-1.2,2-3,3.4-5.2,4.1C10.2,8,10.1,8,10,8z"/>
</g>
</svg>